<svg xmlns="http://www.w3.org/2000/svg" xmlns:xlink="http://www.w3.org/1999/xlink" version="1.1" x="0px" y="0px" viewBox="0 0 100 125" enable-background="new 0 0 100 100" xml:space="preserve"><path d="M82.65,17.788H33.79c1.361,1.555,2.213,3.553,2.268,5.763H82.65c6.356,0,11.526,5.171,11.526,11.526V58.13  c0,6.356-5.171,11.526-11.526,11.526h-7.476L74.9,72.231c-0.357,3.347-0.398,7.854,0.879,12.456  c-5.897-2.631-8.828-10.339-9.69-13.029l-0.642-2.002h-40.43c-6.356,0-11.526-5.171-11.526-11.526V44.496  c-2.375-0.449-4.419-1.816-5.763-3.72V58.13c0,9.534,7.756,17.29,17.29,17.29h36.293c2.113,5.451,8.493,16.044,18.664,15.925  c3.325,0.079,5.508-0.467,5.508-0.467c-1.34-1.538-2.585-3.768-2.585-3.768c-2.066-3.897-2.535-8.189-2.441-11.69h2.194  c9.534,0,17.29-7.756,17.29-17.29V35.077C99.94,25.543,92.184,17.788,82.65,17.788z"/><path d="M26.94,20.399h-8.375v-8.375c0-1.865-1.512-3.377-3.377-3.377s-3.377,1.512-3.377,3.377v8.375H3.437  c-1.865,0-3.377,1.512-3.377,3.377c0,1.865,1.512,3.377,3.377,3.377h8.375v8.375c0,1.865,1.512,3.377,3.377,3.377  s3.377-1.512,3.377-3.377v-8.375h8.375c1.865,0,3.377-1.512,3.377-3.377C30.317,21.911,28.805,20.399,26.94,20.399z"/><text x="0" y="115" fill="#000000" font-size="5px" font-weight="bold" font-family="'Helvetica Neue', Helvetica, Arial-Unicode, Arial, Sans-serif">Created by Andrew Sivko</text><text x="0" y="120" fill="#000000" font-size="5px" font-weight="bold" font-family="'Helvetica Neue', Helvetica, Arial-Unicode, Arial, Sans-serif">from the Noun Project</text></svg>